<svg width="180" height="70" viewBox="0 0 180 70" fill="none" xmlns="http://www.w3.org/2000/svg">
<path fill-rule="evenodd" clip-rule="evenodd" d="M164.76 14.9509C164.76 14.8721 164.741 14.7428 164.853 14.737C165.255 14.7204 165.42 14.8771 165.42 15.1814C165.42 15.5562 165.181 15.6648 164.864 15.6482L164.76 14.9509ZM124.967 21.328C121.651 21.328 120.049 23.9216 120.049 29.336C121.65 29.3957 123.253 29.5093 124.853 29.5093C126.454 29.5093 128.055 29.3957 129.658 29.336C129.659 25.9381 129.202 21.328 124.967 21.328ZM109.884 26.4555H107.826L107.256 23.114C107.026 21.9051 104.392 20.867 102.563 20.867C99.2453 20.867 97.2435 22.1356 97.2435 24.6123C97.2435 26.4555 98.2148 27.3792 100.389 27.8402L105.08 28.8783C109.715 29.9139 112.345 31.6991 112.345 36.4278C112.345 43.1101 106.225 46.2211 100.331 46.2211C97.3587 46.2211 94.3823 45.7045 91.4067 44.61L91.8084 36.4851H94.0382L94.3247 40.4609C95.9841 42.6507 98.386 43.455 101.073 43.455C103.649 43.455 105.995 41.8987 105.995 39.1359C105.995 36.5978 104.508 35.9063 102.392 35.3897L97.4723 34.1808C93.4694 33.1991 91.4067 30.7216 91.4067 27.0898C91.4067 20.5229 96.4985 18.1034 103.191 18.1034C105.766 18.1034 108.282 18.3911 110.343 19.4284L109.884 26.4555ZM88.222 26.4555H86.1642L85.5938 23.114C85.3625 21.9051 82.731 20.867 80.902 20.867C77.584 20.867 75.5821 22.1356 75.5821 24.6123C75.5821 26.4555 76.5534 27.3792 78.7281 27.8402L83.4174 28.8783C88.0525 29.9139 90.684 31.6991 90.684 36.4278C90.684 43.1101 84.5632 46.2211 78.6705 46.2211C75.9616 46.2211 73.2552 45.7916 70.5454 44.8886V45.4151C68.7156 45.3571 67.1723 45.2418 65.512 45.2418C63.9111 45.2418 62.3101 45.3571 60.3074 45.4151L60.0226 44.9533L60.3074 41.3821L54.9884 45.5312C54.1299 46.2211 52.8713 46.2211 51.8408 46.2211C47.6091 46.2211 45.492 43.285 45.492 39.1906C45.492 36.9444 46.1777 34.408 48.1227 33.083C50.2398 31.6427 52.8145 30.9512 55.2732 30.4313L60.3074 29.3957C60.3074 25.3602 58.6472 22.5958 54.3587 22.5958C53.3849 22.5958 51.3831 22.8835 51.1543 23.4034L49.8982 26.2839L48.182 25.8801V21.9051L51.2111 20.0585C53.6722 18.5627 56.0165 18.1025 57.8479 18.1025C62.8797 18.1025 67.4563 20.3487 67.2867 26.5144C67.2307 28.8775 67.1147 31.2381 67.1147 33.6021C67.1147 35.9635 67.2307 38.383 67.2867 40.7461C67.3435 42.1872 67.6851 42.9923 68.8309 43.1092L69.8153 43.2062L70.1462 36.4842H72.3761L72.6617 40.4601C74.3219 42.6499 76.7246 43.4542 79.4129 43.4542C81.9877 43.4542 84.3336 41.8978 84.3336 39.1351C84.3336 36.597 82.8454 35.9055 80.7291 35.3889L75.8093 34.18C71.804 33.1983 69.7454 30.7207 69.7454 27.089C69.7454 20.522 74.8356 18.1025 81.53 18.1025C84.1048 18.1025 86.6202 18.3903 88.6789 19.4275L88.222 26.4555ZM60.3074 38.6143V31.816L57.7327 32.5067C54.7011 33.3724 52.4705 34.0067 52.4705 37.752C52.4705 40.1699 53.8426 41.208 55.5596 41.208C57.2759 41.2088 59.6209 39.7088 60.3074 38.6143ZM13 8.13435V6.00174C16.7748 6.05895 19.6936 6.17504 21.9243 6.17504C25.8712 6.17504 29.1299 6.05895 33.5337 6.00174C38.7967 5.94453 44.4038 7.27036 44.4038 13.7793C44.4038 19.6589 39.4848 21.6182 34.2226 23.4042C41.5435 23.808 45.72 26.3991 45.72 33.083C45.72 40.1707 39.1408 45.644 29.8189 45.4143C27.245 45.3563 24.499 45.241 21.7523 45.241C19.3504 45.241 17.0037 45.3563 14.8866 45.4143V44.0893L16.7189 43.0495C17.6334 42.533 17.8622 41.5546 17.8622 39.7685V13.9526C17.8622 11.5331 17.8062 9.97675 17.4613 9.28606C17.1765 8.70896 16.6061 8.42207 15.1187 8.30516L13 8.13435ZM25.928 9.11276V22.1928H27.6458C32.736 22.1928 35.9372 20.6373 35.9372 15.0479C35.9372 10.5522 33.5937 8.88225 29.4189 8.88225C28.2747 8.88225 27.1289 8.93864 25.928 9.11276ZM164.76 15.7834C164.939 15.7834 165.037 15.7693 165.111 15.858C165.161 15.9202 165.233 16.0785 165.303 16.2469C165.376 16.4144 165.452 16.5827 165.506 16.6614L166.056 16.7502C165.963 16.6391 165.921 16.6175 165.879 16.5545C165.816 16.4658 165.746 16.3033 165.699 16.2079C165.612 16.0114 165.499 15.7527 165.271 15.7121C165.562 15.6582 165.811 15.4592 165.811 15.1292C165.808 15.0451 165.787 14.9627 165.747 14.8887C165.707 14.8146 165.651 14.751 165.583 14.703C165.415 14.5977 165.171 14.6093 164.98 14.6093H164.136C164.359 14.7254 164.374 14.7502 164.374 14.8879V16.4882L164.13 16.6399L165 16.751C164.775 16.6291 164.76 16.5827 164.76 16.4666V15.7834ZM165.025 14.0537C165.927 14.0537 166.653 14.7992 166.653 15.7369C166.653 16.6606 165.921 17.416 165.025 17.416C164.136 17.416 163.411 16.6606 163.411 15.7369C163.411 14.805 164.13 14.0537 165.025 14.0537ZM165.025 13.7395C163.964 13.7395 163.101 14.6375 163.101 15.7419C163.101 16.8389 163.964 17.7311 165.025 17.7311C166.093 17.7311 166.963 16.8389 166.963 15.7419C166.963 14.6317 166.093 13.7395 165.025 13.7395ZM25.928 25.1902V42.0156C27.073 42.2469 27.9306 42.2469 29.018 42.2469C35.1387 42.2469 37.1406 38.6143 37.1406 33.544C37.1406 27.0907 33.4818 25.1902 27.6458 25.1902H25.928ZM139.499 38.9037V23.9788L136.224 24.1844C136.679 25.366 136.924 26.7225 136.924 28.244V31.2381C133.834 32.1029 130.401 32.3931 127.886 32.3931H120.394C120.394 37.9825 123.538 42.13 129.487 42.13C131.376 42.13 133.834 41.2088 135.665 40.1135L136.352 40.9783L135.095 43.7444C131.661 45.5876 129.316 46.2202 125.943 46.2202C117.591 46.2202 112.958 41.1516 112.958 32.9105C112.958 28.1835 113.587 23.9216 118.392 21.0403L121.082 19.4275C122.509 18.5635 124.056 18.1025 125.77 18.1025C130.321 18.1025 134.073 19.8438 135.838 23.3113V22.9432L139.613 20.4665V17.0089C139.613 15.222 139.5 13.4924 139.385 11.7064C141.903 10.7852 144.647 9.63016 146.364 8.82504L147.167 9.39965C146.708 11.7056 146.48 14.5861 146.48 17.2385V20.5801L152.999 20.2335L152.927 20.8371L153.497 20.4665V17.0089C153.497 15.222 153.381 13.4924 153.269 11.7064C155.784 10.7852 158.532 9.63016 160.247 8.82504L161.046 9.39965C160.591 11.7056 160.363 14.5861 160.363 17.2385V20.5801L166.884 20.2335L166.425 23.9788H160.363V37.6931C160.363 40.6342 161.334 41.4393 163.908 41.4393C165.111 41.4393 165.741 41.0944 166.54 40.6914L167 41.7859L164.196 45.1838C163.796 45.7053 162.535 46.2219 160.706 46.2219C155.501 46.2219 153.384 44.091 153.384 38.9054V23.9805L149.725 24.2101V23.9805H146.483V37.6948C146.483 40.6358 147.454 41.441 150.028 41.441C151.231 41.441 151.859 41.096 152.661 40.6931L153.118 41.7875L150.314 45.1855C149.913 45.707 148.657 46.2236 146.824 46.2236C141.613 46.2211 139.499 44.0893 139.499 38.9037ZM14.7137 52.8768H164.092V57.6818H14.7137V52.8768ZM14.7137 60.7704H164.092V63H14.7137V60.7704Z" fill="#969696"/>
</svg>
