<svg width="180" height="71" viewBox="0 0 180 71" fill="none" xmlns="http://www.w3.org/2000/svg">
<path fill-rule="evenodd" clip-rule="evenodd" d="M132.276 31.2676C130.66 31.5844 127.009 31.6937 127.009 33.7024C127.009 35.7489 128.031 36.1757 128.116 36.4743C128.202 36.773 129.737 38.735 129.098 39.7998C128.458 40.8668 128.159 40.7386 127.776 40.7386C127.392 40.7386 126.411 40.44 126.241 41.0372C126.071 41.6345 125.473 41.7204 124.92 41.7204C124.365 41.7204 120.484 41.5922 118.438 43.5113C118.438 43.5113 115.025 41.4218 114.513 40.5252C114.002 39.6301 113.704 38.9047 112.85 38.8625C111.998 38.8195 112.338 37.4124 112.466 37.0286C112.595 36.6448 112.595 36.2609 112.084 35.9623C111.572 35.6637 110.932 35.6637 110.761 35.7067C110.591 35.7489 110.804 35.2799 110.42 34.8109C110.038 34.3418 110.038 33.1052 110.676 32.7636C111.316 32.4227 115.24 29.8641 115.624 29.4796C116.008 29.0958 116.774 28.6697 115.496 28.1577C115.496 28.1577 104.756 25.1789 99.6401 19.9671C99.6401 19.9671 97.6569 17.3451 96.8907 16.8659C96.8907 16.8659 97.0502 16.5462 97.5622 16.5462C97.5622 16.5462 96.4428 15.5877 96.2192 14.788C96.2192 14.788 97.2417 14.2126 98.3284 14.3729C98.3284 14.3729 94.4676 10.9986 93.6089 9.98769C93.6089 9.98769 96.1638 10.8223 97.4027 10.5186L94.7727 6.4976C94.7727 6.4976 98.4653 7.66072 100.312 8.77359C100.312 8.77359 97.3269 3.7402 96.0626 2.42559C96.0626 2.42559 95.7836 1.74243 96.7698 2.47584C96.7698 2.47584 103.599 7.23101 106.255 7.50923C106.255 7.50923 103.245 2.34984 102.74 1.11025C102.234 -0.129343 103.423 0.907778 103.574 1.3637C103.726 1.8189 108.481 7.50923 110.96 8.44585C110.96 8.44585 110.58 5.9419 110.657 5.25874C110.732 4.57558 111.263 5.08175 111.263 5.48597C111.263 5.89018 112.679 8.59661 113.868 9.65922C115.056 10.7211 116.423 13.5543 117.586 14.2374C117.586 14.2374 122.872 19.8272 127.172 20.3829C127.172 20.3829 128.133 20.5854 127.627 21.2431C127.122 21.9007 127.5 22.2802 127.754 22.5839C128.007 22.8876 129.044 24.3035 130.182 24.7084C131.32 25.1133 130.586 25.1381 130.561 25.2393C130.536 25.3406 131.826 25.7703 131.826 25.2648C131.826 24.7594 132.306 24.5817 132.963 24.4054C133.62 24.2277 135.441 23.5453 136.706 23.8745C136.706 23.8745 136.479 21.1936 134.127 20.8651C131.775 20.5359 130.409 20.7893 130.409 20.7893C130.409 20.7893 129.22 20.1572 130.561 19.9292C131.902 19.702 139.818 16.6409 141.537 15.4268C141.537 15.4268 147.785 11.102 149.049 8.75028C149.049 8.75028 149.479 8.54781 149.176 9.00301C148.873 9.4582 147.557 12.3919 147.557 12.7465C147.557 13.1012 147.608 13.5055 148.19 13.0248C148.77 12.5441 151.097 10.7743 151.604 10.4706C152.109 10.1669 151.806 10.7488 151.68 11.1027C151.553 11.4567 151.072 13.0503 151.123 13.7334L152.034 13.7079C152.034 13.7079 151.907 15.276 151.199 15.7057C151.199 15.7057 151.578 15.9584 151.959 15.8324C151.959 15.8324 151.832 18.4624 148.848 21.0428C148.848 21.0428 147.482 22.6363 148.595 22.4339C149.707 22.2314 150.39 22.4339 148.923 23.0406C147.456 23.6472 145.276 24.2518 139.91 28.0106C139.907 28.0084 134.834 31.028 132.276 31.2676Z" fill="#969696"/>
<path fill-rule="evenodd" clip-rule="evenodd" d="M26 60.1359C27.552 59.9582 28.4391 59.8402 28.4391 58.0267V43.641C28.4391 41.6797 27.2746 41.6199 26 41.5304V40.7875H34.5643C36.1163 40.7875 41.7709 40.9055 41.7709 45.5426C41.7709 48.8412 38.6385 49.6154 37.4753 50.0007V50.0604C39.803 50.477 42.7134 51.962 42.7134 55.3509C42.7134 57.8475 40.7732 60.7608 34.9255 60.8802H26V60.1359Z" fill="#969696"/>
<path fill-rule="evenodd" clip-rule="evenodd" d="M32.8738 58.1162C32.8738 59.4534 33.3727 59.9282 34.5365 59.9282C37.5852 59.9282 37.9458 57.2837 37.9458 55.4702C37.9458 51.2198 35.5066 50.7748 33.7048 50.6852H32.873V58.1162H32.8738ZM32.8738 49.793C36.5882 49.793 37.1978 48.5439 37.1978 45.5127C37.1978 43.4319 36.5882 41.6788 34.3428 41.6788C32.9299 41.6788 32.9015 42.4516 32.8738 43.1355V49.793Z" fill="#F4F4F4"/>
<path fill-rule="evenodd" clip-rule="evenodd" d="M50.7075 60.8801H44.0835V60.1664C45.192 60.1664 45.4964 59.0965 45.4964 58.3842V43.225C45.4964 42.898 45.4411 41.5011 44.0835 41.5011V40.7881H49.3492V58.3842C49.3492 59.2465 49.626 60.1664 50.7075 60.1664V60.8801ZM64.0568 59.6012C63.2804 60.583 62.255 61.2953 61.0081 61.2953C59.0679 61.2953 58.8457 60.0477 58.6797 59.2159C56.8778 61.1474 54.9376 61.2953 54.2726 61.2953C52.942 61.2953 51.2239 60.3747 51.2239 58.1162C51.2239 55.0252 54.7439 53.8359 58.6797 52.5569V50.3873C58.6797 48.8709 58.2915 47.7712 56.2405 47.7712C55.2427 47.7712 54.6055 48.3655 54.6055 48.8411C54.6055 49.4652 55.4372 49.7034 55.4372 50.8621C55.4372 51.3967 55.0221 52.5264 53.58 52.5264C53.2472 52.5264 51.7512 52.5263 51.7512 50.5067C51.7512 48.6335 53.497 46.8207 56.9339 46.8207C60.011 46.8207 62.4771 48.0982 62.4771 50.892V58.65C62.4771 58.8277 62.4771 59.3929 63.0874 59.3929C63.1396 59.3954 63.1917 59.386 63.2397 59.3653C63.2876 59.3446 63.3302 59.3132 63.3642 59.2735L63.6417 58.9778L64.0568 59.6012Z" fill="#969696"/>
<path fill-rule="evenodd" clip-rule="evenodd" d="M58.6521 53.5985C58.0148 53.7464 55.2705 54.6087 55.2705 57.1949C55.2705 58.117 55.6864 59.1861 56.6842 59.1861C57.6266 59.1861 58.2639 58.3835 58.6521 57.9072V53.5985Z" fill="#F4F4F4"/>
<path fill-rule="evenodd" clip-rule="evenodd" d="M75.4985 58.1746C74.2239 60.1075 72.3944 61.2954 70.2043 61.2954C66.6567 61.2954 64.2729 58.1447 64.2729 54.4886C64.2729 48.6336 68.2088 46.8216 70.814 46.8216C72.7819 46.8216 75.1096 47.9213 75.1096 50.0604C75.1096 51.962 73.4468 51.962 73.2254 51.962C71.6734 51.962 71.6734 50.5068 71.6734 48.9009C71.6734 48.0087 70.9531 47.7414 70.5365 47.7414C68.3748 47.7414 68.1811 51.3976 68.1811 52.7355C68.1811 56.8964 69.8715 59.3034 72.0339 59.3034C73.6136 59.3034 74.3346 58.4411 74.9996 57.6392L75.4985 58.1746ZM89.6963 47.8616C88.5878 48.0692 88.0612 48.1886 87.2848 48.8718C86.6752 49.4064 85.1778 50.8331 84.4575 51.7552L89.8346 59.7215C90.1114 60.1366 90.3059 60.1665 90.528 60.1665V60.8802H84.0423V60.1665C84.4305 60.1665 85.2062 60.0784 85.2062 59.6021C85.2062 59.275 84.8457 58.7113 84.5412 58.2649L81.9084 54.2817L81.2711 54.9955V58.3836C81.2711 59.6909 81.3818 59.9582 82.7124 60.1658V60.8795H76.0884V60.1658C77.1969 60.1658 77.419 59.0959 77.419 58.3836V43.2244C77.419 42.8974 77.419 41.5005 76.0884 41.5005V40.7875H81.2711V53.5985L84.8195 49.7931C85.0685 49.5258 85.4014 48.9606 85.4014 48.7232C85.4014 48.1289 85.0962 48.0692 83.7663 47.8609V47.177H89.6977V47.8616H89.6963ZM105.688 60.8802H99.1746V60.1665C100.089 60.0784 100.476 59.5722 100.476 58.4724V51.2803C100.476 50.4479 100.449 48.8135 98.9524 48.8135C97.8432 48.8135 96.6524 50.2687 96.6524 50.536V58.4717C96.6524 59.1556 96.7347 60.0179 98.0093 60.1658V60.8795H91.3306V60.1658C92.3277 59.9582 92.7989 59.8402 92.7989 58.3836V43.2244C92.7989 41.8275 92.4107 41.7394 91.3306 41.5005V40.7875H96.6524V49.1391C97.9823 47.4749 99.1746 46.8216 100.615 46.8216C102.14 46.8216 104.33 47.7422 104.33 51.0123V58.3836C104.33 58.8883 104.33 60.1658 105.688 60.1658V60.8802ZM119.011 59.6013C118.236 60.5831 117.21 61.2954 115.962 61.2954C114.022 61.2954 113.8 60.0478 113.634 59.216C111.833 61.1475 109.892 61.2954 109.227 61.2954C107.897 61.2954 106.178 60.3748 106.178 58.1163C106.178 55.0253 109.699 53.836 113.633 52.5571V50.3874C113.633 48.871 113.246 47.7713 111.195 47.7713C110.196 47.7713 109.559 48.3656 109.559 48.8412C109.559 49.4654 110.391 49.7035 110.391 50.8623C110.391 51.3968 109.975 52.5265 108.533 52.5265C108.201 52.5265 106.704 52.5265 106.704 50.5068C106.704 48.6336 108.45 46.8208 111.887 46.8208C114.964 46.8208 117.431 48.0983 117.431 50.8921V58.6501C117.431 58.8279 117.431 59.393 118.039 59.393C118.092 59.3957 118.144 59.3863 118.192 59.3656C118.24 59.3449 118.283 59.3134 118.317 59.2736L118.594 58.9779L119.011 59.6013Z" fill="#969696"/>
<path fill-rule="evenodd" clip-rule="evenodd" d="M113.607 53.5985C112.969 53.7464 110.225 54.6087 110.225 57.1949C110.225 58.117 110.64 59.1861 111.637 59.1861C112.58 59.1861 113.218 58.3835 113.606 57.9072V53.5985H113.607Z" fill="#F4F4F4"/>
<path fill-rule="evenodd" clip-rule="evenodd" d="M138.536 47.8915C138.008 48.0095 137.622 48.0692 137.15 49.378L132.854 61.2954H132.217L129.445 52.2898H129.306L125.925 61.2954H125.261L121.158 50.1798C120.437 48.2469 120.299 48.0393 119.578 47.8907V47.177H125.731V47.8907C125.343 47.9505 124.677 48.0087 124.677 48.7829C124.677 49.4056 125.62 51.6649 127.006 55.648L128.891 50.5651C128.613 49.5549 128.447 48.9606 128.309 48.6038C128.06 47.9811 127.754 47.981 127.089 47.8907V47.177H133.574V47.8907C132.853 47.9505 132.244 48.0087 132.244 48.6336C132.244 49.2585 133.408 53.1215 133.907 55.4405H133.963C134.71 53.1812 136.123 49.6452 136.123 48.9912C136.123 48.0393 135.57 47.981 134.794 47.8915V47.1777H138.536V47.8915ZM153.169 47.8616C152.06 48.0692 151.533 48.1886 150.757 48.8718C150.148 49.4064 148.651 50.8331 147.93 51.7552L153.307 59.7215C153.585 60.1366 153.778 60.1665 154 60.1665V60.8802H147.515V60.1665C147.903 60.1665 148.679 60.0784 148.679 59.6021C148.679 59.275 148.319 58.7113 148.013 58.2649L145.38 54.2817L144.743 54.9955V58.3836C144.743 59.6909 144.854 59.9582 146.185 60.1658V60.8795H139.56V60.1658C140.668 60.1658 140.89 59.0959 140.89 58.3836V43.2244C140.89 42.8974 140.89 41.5005 139.56 41.5005V40.7875H144.742V53.5985L148.29 49.7931C148.54 49.5258 148.873 48.9606 148.873 48.7232C148.873 48.1289 148.567 48.0692 147.238 47.8609V47.177H153.17V47.8616H153.169ZM93.4725 69.9667H92.8003V64.9938H96.2438V65.5881H93.4725V67.1132H95.9109V67.7089H93.4725V69.9667ZM103.933 64.9938V68.2217C103.933 69.2399 103.295 70.0993 101.931 70.0993C100.594 70.0993 100.019 69.2399 100.019 68.3113V64.9938H100.691V68.1248C100.691 69.2056 101.349 69.5035 101.951 69.5035C102.568 69.5035 103.261 69.2187 103.261 68.1394V64.9945H103.933V64.9938ZM108.592 69.9667H107.921V64.9938H110.221C111.039 64.9938 111.855 65.2771 111.855 66.331C111.855 67.0651 111.481 67.3353 111.163 67.5218C111.447 67.6397 111.731 67.765 111.758 68.4576L111.8 69.3578C111.807 69.6353 111.841 69.7387 112.05 69.856V69.9667H111.225C111.128 69.6623 111.107 68.907 111.107 68.7206C111.107 68.3113 111.025 67.8327 110.221 67.8327H108.592V69.9667Z" fill="#969696"/>
<path fill-rule="evenodd" clip-rule="evenodd" d="M108.592 67.258H110.152C110.644 67.258 111.163 67.1328 111.163 66.3986C111.163 65.6303 110.602 65.5676 110.27 65.5676H108.592V67.258Z" fill="#F4F4F4"/>
<path fill-rule="evenodd" clip-rule="evenodd" d="M118.877 64.9937H119.529V69.9666H118.774L116.246 65.9492H116.232V69.9666H115.58V64.9937H116.377L118.865 69.011H118.877V64.9937ZM124.098 69.9666H123.426V64.9937H124.098V69.9666ZM127.168 64.9937H131.206V65.588H129.524V69.9666H128.851V65.588H127.168V64.9937ZM138.407 64.9937V68.2216C138.407 69.2397 137.77 70.0991 136.404 70.0991C135.068 70.0991 134.492 69.2397 134.492 68.3111V64.9937H135.165V68.1247C135.165 69.2055 135.822 69.5034 136.425 69.5034C137.043 69.5034 137.735 69.2186 137.735 68.1392V64.9944H138.407V64.9937ZM143.067 69.9666H142.395V64.9937H144.695C145.512 64.9937 146.33 65.277 146.33 66.3308C146.33 67.065 145.955 67.3352 145.637 67.5216C145.922 67.6396 146.204 67.7649 146.233 68.4575L146.274 69.3577C146.281 69.6352 146.316 69.7386 146.523 69.8559V69.9666H145.7C145.603 69.6622 145.582 68.9069 145.582 68.7204C145.582 68.3111 145.499 67.8326 144.695 67.8326H143.067V69.9666Z" fill="#969696"/>
<path fill-rule="evenodd" clip-rule="evenodd" d="M143.066 67.258H144.626C145.118 67.258 145.637 67.1328 145.637 66.3986C145.637 65.6303 145.077 65.5676 144.744 65.5676H143.066V67.258Z" fill="#F4F4F4"/>
<path fill-rule="evenodd" clip-rule="evenodd" d="M153.991 69.9666H150.318V64.9937H153.942V65.588H150.991V67.1131H153.714V67.7088H150.991V69.3723H153.991V69.9666Z" fill="#969696"/>
</svg>
